<svg width="89" height="71" viewBox="0 0 89 71" fill="none" xmlns="http://www.w3.org/2000/svg">
<path d="M54.0076 21.3187L50.6479 23.5652C43.4076 16.3836 34.691 16.2673 31.2377 17.1068C15.8377 20.2325 14.942 33.4658 16.4192 39.6918C23.036 57.4991 38.2975 56.3398 45.1012 53.5342C46.0005 52.6658 48.1866 50.9249 49.737 50.9091C51.2873 50.8934 51.9591 52.4712 52.1012 53.262C51.399 56.1361 43.6962 58.6254 39.9326 59.5107L39.9019 65.4899L32.9018 65.7621L31.822 60.2513C31.986 60.0609 32.1333 59.9063 32.2631 59.7821C30.8199 60.2619 26.962 60.3023 19.7148 54.5416C9.53989 46.4536 9.71444 33.6286 11.0736 28.2271C12.7356 23.8464 17.9606 14.6599 25.5641 12.9591C35.0686 10.833 34.6956 11.9156 41.2469 12.4708C46.488 12.9149 51.9378 18.5544 54.0076 21.3187Z" fill="#130303" stroke="black"/>
<path d="M26.3077 28.5661C25.6255 24.7699 27.7584 23.7853 28.9102 23.7675C30.7858 24.0995 30.9687 26.026 30.8257 26.9478L31.6086 46.4307C30.1279 50.4243 28.3479 48.2312 27.643 46.6355C27.4821 42.1941 26.9898 32.3623 26.3077 28.5661Z" fill="url(#paint0_linear_162_14)" stroke="black"/>
<path d="M45.0785 44.0998L44.722 26.9895C46.2296 24.2097 47.6443 26.0761 48.1631 27.3568L49.2096 43.9847C47.4417 48.5079 45.7189 45.9461 45.0785 44.0998Z" fill="url(#paint1_linear_162_14)" stroke="black"/>
<path d="M38.44 25.938C37.7466 22.4784 39.6468 21.7387 40.6835 21.8013C42.5592 22.1333 42.6916 23.8897 42.5233 24.7264L43.6287 47.168C42.9041 50.7151 40.6139 49.1733 39.5594 47.959C39.4752 42.0601 39.1333 29.3976 38.44 25.938Z" fill="url(#paint2_linear_162_14)"/>
<path d="M32.4271 24.39C32.169 22.023 33.5759 21.0872 34.3116 20.9152C36.1985 20.9107 36.4029 22.1922 36.2692 22.8335L37.5935 48.82C37.4299 49.5164 36.8324 50.934 35.751 51.0328C34.6696 51.1315 33.7747 49.6754 33.4625 48.9351C33.2249 41.7396 32.6851 26.757 32.4271 24.39Z" fill="url(#paint3_linear_162_14)"/>
<path d="M23.1695 29.2196C23.9557 29.2177 25.4698 29.9532 25.2365 32.9103C24.9449 36.6066 26.1089 39.5934 25.4947 40.331C24.9058 41.0382 24.6779 42.5318 22.497 40.7254C22.4033 40.6478 22.3061 40.5642 22.205 40.4741C20.2418 38.7241 21.5817 39.9125 22.497 40.7254L21.5235 38.1772C20.2988 37.0134 18.9135 33.5925 23.1695 29.2196Z" fill="url(#paint4_linear_162_14)"/>
<path d="M53.3771 40.2491C50.6511 41.169 50.1322 38.2037 50.2135 36.6061C50.0844 32.8957 52.2775 32.8003 53.0292 32.9938C53.6304 33.1486 55.2466 34.6961 55.9795 35.4505C56.2479 36.6667 56.103 39.3291 53.3771 40.2491Z" fill="url(#paint5_linear_162_14)"/>
<path d="M64.3454 34.6342C58.3301 27.0891 59.4195 24.8962 60.7161 24.7428C62.4661 22.7796 66.0784 26.4376 67.6658 28.5119C69.8377 32.0882 69.6665 35.8784 69.3094 37.3264C70.382 43.5614 65.4488 47.8668 62.8481 49.2401C61.1635 48.3979 58.4332 46.2461 60.9886 44.3771C63.544 42.5082 64.2912 37.1031 64.3454 34.6342Z" fill="url(#paint6_linear_162_14)"/>
<path d="M71.5111 47.0861C73.6313 44.1245 74.0172 37.5956 73.9452 34.7013C73.2861 33.4159 72.0756 30.6466 72.5064 29.8524C72.9371 29.0581 68.1742 23.3628 65.7389 20.6145C65.4108 19.5086 65.5324 17.2048 68.6443 16.8367C71.7562 16.4687 76.5896 24.4293 78.6174 28.4556C80.6523 30.0732 79.7815 39.8652 79.0917 44.5591C77.7933 48.1376 74.3495 55.435 70.9616 55.996C67.5738 56.557 67.0316 54.2928 67.1839 53.0906C67.7429 52.3231 69.391 50.0477 71.5111 47.0861Z" fill="url(#paint7_linear_162_14)"/>
<path d="M22.497 40.7254C24.6779 42.5318 24.9058 41.0382 25.4947 40.331C26.1089 39.5934 24.9449 36.6066 25.2365 32.9103C25.4698 29.9532 23.9557 29.2177 23.1695 29.2196C18.9135 33.5925 20.2988 37.0134 21.5235 38.1772L22.497 40.7254ZM22.497 40.7254C22.4033 40.6478 22.3061 40.5642 22.205 40.4741C20.2418 38.7241 21.5817 39.9125 22.497 40.7254ZM40.6835 21.8013C39.6468 21.7387 37.7466 22.4784 38.44 25.938C39.1333 29.3976 39.4752 42.0601 39.5594 47.9589C40.6139 49.1733 42.9041 50.7151 43.6287 47.168L42.5233 24.7264C42.6916 23.8897 42.5592 22.1333 40.6835 21.8013ZM34.3116 20.9152C33.5759 21.0872 32.169 22.023 32.4271 24.39C32.6851 26.757 33.2249 41.7396 33.4625 48.9351C33.7747 49.6754 34.6696 51.1315 35.751 51.0328C36.8324 50.934 37.4299 49.5164 37.5935 48.82L36.2692 22.8335C36.4029 22.1922 36.1985 20.9107 34.3116 20.9152ZM50.2135 36.6061C50.1322 38.2037 50.6511 41.169 53.3771 40.2491C56.103 39.3291 56.2479 36.6667 55.9795 35.4505C55.2466 34.6961 53.6304 33.1486 53.0292 32.9938C52.2775 32.8003 50.0844 32.8957 50.2135 36.6061ZM60.7161 24.7428C59.4195 24.8962 58.3301 27.0891 64.3454 34.6342C64.2912 37.1031 63.544 42.5082 60.9886 44.3771C58.4332 46.2461 61.1635 48.3979 62.8481 49.2401C65.4488 47.8668 70.382 43.5614 69.3094 37.3264C69.6665 35.8784 69.8377 32.0882 67.6658 28.5119C66.0784 26.4376 62.4661 22.7796 60.7161 24.7428ZM73.9452 34.7013C74.0172 37.5956 73.6313 44.1245 71.5111 47.0861C69.391 50.0477 67.7429 52.3231 67.1839 53.0906C67.0316 54.2928 67.5738 56.557 70.9616 55.996C74.3495 55.435 77.7933 48.1376 79.0917 44.5591C79.7815 39.8652 80.6523 30.0732 78.6174 28.4556C76.5896 24.4293 71.7562 16.4687 68.6443 16.8367C65.5324 17.2048 65.4108 19.5086 65.7389 20.6145C68.1742 23.3628 72.9371 29.0581 72.5064 29.8524C72.0756 30.6466 73.2861 33.4159 73.9452 34.7013Z" stroke="black"/>
<defs>
<linearGradient id="paint0_linear_162_14" x1="34.2187" y1="26.4965" x2="23.8248" y2="45.6613" gradientUnits="userSpaceOnUse">
<stop stop-color="#1A20D5"/>
<stop offset="0.99" stop-color="#8A8DF7"/>
</linearGradient>
<linearGradient id="paint1_linear_162_14" x1="51.0923" y1="27.9678" x2="42.3584" y2="44.0719" gradientUnits="userSpaceOnUse">
<stop stop-color="#1A20D5"/>
<stop offset="0.99" stop-color="#8A8DF7"/>
</linearGradient>
<linearGradient id="paint2_linear_162_14" x1="63.6756" y1="13.6825" x2="41.5773" y2="54.4283" gradientUnits="userSpaceOnUse">
<stop stop-color="#1A20D5"/>
<stop offset="0.99" stop-color="#8A8DF7"/>
</linearGradient>
<linearGradient id="paint3_linear_162_14" x1="63.6756" y1="13.6825" x2="41.5773" y2="54.4283" gradientUnits="userSpaceOnUse">
<stop stop-color="#1A20D5"/>
<stop offset="0.99" stop-color="#8A8DF7"/>
</linearGradient>
<linearGradient id="paint4_linear_162_14" x1="63.6756" y1="13.6825" x2="41.5773" y2="54.4283" gradientUnits="userSpaceOnUse">
<stop stop-color="#1A20D5"/>
<stop offset="0.99" stop-color="#8A8DF7"/>
</linearGradient>
<linearGradient id="paint5_linear_162_14" x1="63.6756" y1="13.6825" x2="41.5773" y2="54.4283" gradientUnits="userSpaceOnUse">
<stop stop-color="#1A20D5"/>
<stop offset="0.99" stop-color="#8A8DF7"/>
</linearGradient>
<linearGradient id="paint6_linear_162_14" x1="63.6756" y1="13.6825" x2="41.5773" y2="54.4283" gradientUnits="userSpaceOnUse">
<stop stop-color="#1A20D5"/>
<stop offset="0.99" stop-color="#8A8DF7"/>
</linearGradient>
<linearGradient id="paint7_linear_162_14" x1="63.6756" y1="13.6825" x2="41.5773" y2="54.4283" gradientUnits="userSpaceOnUse">
<stop stop-color="#1A20D5"/>
<stop offset="0.99" stop-color="#8A8DF7"/>
</linearGradient>
</defs>
</svg>
